<svg xmlns="http://www.w3.org/2000/svg" xmlns:xlink="http://www.w3.org/1999/xlink" viewBox="0 0 1097.01 103.87"><defs><style>.cls-1{fill:none;stroke-miterlimit:10;stroke-width:2px;stroke:url(#Fading_Sky);}.cls-2{}</style><linearGradient id="Fading_Sky" y1="51.94" x2="197.01" y2="51.94" gradientUnits="userSpaceOnUse"><stop offset="0" stop-color="#2484c6"/><stop offset="1" stop-color="#2484c6" stop-opacity="0"/></linearGradient></defs><g id="Layer_2" data-name="Layer 2"><g id="Layer_3" data-name="Layer 3"><path class="cls-1" d="M193.92,81.61a22.81,22.81,0,0,0-.61-10.75c-13.83-43.42-177.64-46-191.35-7-3.53,10,3.72,20.53,4.7,21.91C20.3,104.91,59.79,106.25,85.31,90c28.85-18.32,44.55-62,29-79.44C101.83-3.27,67.17-3,50.88,17.26,35.21,36.72,45.81,63.1,47.35,67c1.09,2.69,11.91,28.35,40.31,34.83,1.37.31,31.29,6.6,52.43-14.87,12.59-12.78,24.09-37.46,12.53-56.74C139.24,7.87,102,4.37,83.75,22.34c-11.13,11-13.79,28.5-9.4,41.87,9.35,28.44,51.16,39.62,78.27,30.13,12.8-4.48,21.86-13.41,24.85-16.41A75.17,75.17,0,0,0,196.05,46.6"/></g><g id="Layer_1_copy" data-name="Layer 1 copy"><path class="cls-2" d="M86.72,81.1A20.1,20.1,0,0,1,76.6,83.76c-9.19,0-15.45-6.32-15.45-15.83,0-9.32,6.07-15.75,15.82-15.75a18.1,18.1,0,0,1,8.94,2.12l.18,6.82H82.94l-1.36-6.95,3,.77v2.48a10.25,10.25,0,0,0-7-2.83c-5.62,0-10,4.51-10,13.34s4.12,13.38,10.14,13.38a12.13,12.13,0,0,0,6.09-1.72l-2.75,2.53V79.07c0-3.56,0-7-.14-10.62h5.94c-.09,3.52-.13,7.06-.13,10.71ZM76.55,70.58V68.45H89.36v2.13l-5.15.59h-2Z"/><path class="cls-2" d="M99.69,70.74c1.88-.61,4.92-1.44,7.12-1.9V70.6a41.81,41.81,0,0,0-6,1.82c-3,1.22-3.95,2.84-3.95,4.57a3,3,0,0,0,3.19,3.33c1.22,0,2-.47,4.17-2l1.37-1,.55.8-1.61,1.7c-2.46,2.52-3.93,3.85-7,3.85-3.41,0-6-2-6-5.73C91.58,75,93.15,72.86,99.69,70.74ZM104,79.06V68.21c0-4.22-1-5.36-4-5.36a12.8,12.8,0,0,0-4.16.74L98.36,62l-.75,3.51c-.26,2.18-1.33,3.16-2.82,3.16a2.35,2.35,0,0,1-2.56-2c.55-3.61,4-6,9.59-6,5.25,0,7.53,2.29,7.53,8.18v9.89c0,1.46.51,2,1.35,2,.62,0,1-.32,1.57-1l1,.9a4.71,4.71,0,0,1-4.66,2.88C105.86,83.55,104.2,81.83,104,79.06Z"/><path class="cls-2" d="M117.81,73.48V71.09c0-2.5,0-3.65-.13-5.46l-3.19-.41V63.53l7.57-2.86.73.47.48,5.61v6.73c0,2.81,0,7.48.13,9.51h-5.72C117.77,81,117.81,76.29,117.81,73.48Zm-3,7.66,4.65-.9h2.87l4.65.9V83H114.85Zm5.82-13.71h3l-.86.78c1.11-4.89,4.08-7.54,6.76-7.54a3.55,3.55,0,0,1,3.59,2.45c0,2.25-1.12,3.51-2.93,3.51A4,4,0,0,1,127.11,65l-1.27-1.39,2,.12a10.68,10.68,0,0,0-4.65,6.73l-2.54-.16Z"/><path class="cls-2" d="M140,71.58C140,77,142.78,80,146.8,80a6.84,6.84,0,0,0,5.71-3l1.34,1c-1.49,3.73-4.57,5.64-8.85,5.64-6.19,0-10.7-4.15-10.7-11.43s5.23-11.53,11.32-11.53c4.42,0,7.77,2.74,8.23,6.22a2.4,2.4,0,0,1-2.56,2c-1.64,0-2.68-1-2.95-3.19l-.76-3.6,2.7,1.77a9.3,9.3,0,0,0-4.19-1C142.83,62.85,140,65.61,140,71.58Z"/><path class="cls-2" d="M159.72,83c.09-2,.14-6.7.14-9.51V71.33c0-2.49-.05-3.89-.14-5.7l-3.25-.41V63.53l8.19-2.86.73.47-.14,6.34v6c0,2.81.05,7.48.14,9.51Zm8.34-1.85V83H156.83V81.14l4.58-.9h2.19Zm-9-27.93a3.43,3.43,0,1,1,3.42,3.23A3.24,3.24,0,0,1,159.07,53.21Z"/><path class="cls-2" d="M179.11,70.74c1.89-.61,4.92-1.44,7.12-1.9V70.6a41.25,41.25,0,0,0-6,1.82c-3.05,1.22-3.95,2.84-3.95,4.57,0,2.33,1.38,3.33,3.18,3.33,1.22,0,2-.47,4.17-2l1.37-1,.55.8L184,79.78c-2.45,2.52-3.93,3.85-7,3.85-3.4,0-6-2-6-5.73C171,75,172.58,72.86,179.11,70.74Zm4.31,8.32V68.21c0-4.22-1-5.36-4-5.36a12.8,12.8,0,0,0-4.16.74L177.78,62,177,65.51c-.26,2.18-1.34,3.16-2.83,3.16a2.34,2.34,0,0,1-2.55-2c.54-3.61,4-6,9.59-6,5.25,0,7.53,2.29,7.53,8.18v9.89c0,1.46.5,2,1.34,2,.62,0,1-.32,1.57-1l1.05.9a4.7,4.7,0,0,1-4.66,2.88C185.29,83.55,183.62,81.83,183.42,79.06Z"/></g><g id="Layer_1-2" data-name="Layer 1"><path class="cls-2" d="M40.9,26.35c-.09,3.18-.09,6.46-.09,9.77v4.19c0,4-.24,6.24-.91,8.09a6.47,6.47,0,0,1-6.36,4.54c-1.47,0-2.77-.48-3.29-1.79a2.06,2.06,0,0,1,2.24-2,3.63,3.63,0,0,1,2.65,1.37l1,1-.32.28-.25,0v-.29c.95-.92,1.26-2.34,1.26-4.66,0-2.56-.15-7.13-.3-20.55Zm-7.31,0h10v1.5l-4.47.48h-.94l-4.57-.48Z"/><path class="cls-2" d="M65.35,37c0,7.2-4.84,11.15-10,11.15s-10-3.77-10-11.15c0-7.19,4.89-11.15,10-11.15S65.35,29.58,65.35,37Zm-10,9.43c3.85,0,5.42-4.37,5.42-9.43s-1.57-9.43-5.42-9.43S49.94,31.92,49.94,37,51.53,46.39,55.39,46.39Z"/><path class="cls-2" d="M78.61,42.89c0-1.88-1-2.72-3.38-3.69l-1.29-.55c-3.52-1.51-5.72-3.39-5.72-6.79,0-3.76,3.1-6.05,7.56-6.05a9.88,9.88,0,0,1,5.64,1.66l-.23,4.32H78.76L77.92,27l2.32,1v1.6c-1.64-1.38-2.84-2-4.51-2-2.15,0-3.83,1.2-3.83,3.27,0,1.86,1.16,2.89,3.27,3.76l1.38.59c4.15,1.73,5.81,3.54,5.81,6.67,0,3.77-3,6.26-8,6.26a13.21,13.21,0,0,1-6.58-1.68L68,41.81h2.46l.83,5.06L69,46V44.49c2,1.27,3.21,1.87,5.32,1.87C77,46.36,78.61,45,78.61,42.89Z"/><path class="cls-2" d="M83.74,27.85v-1.5h9.71v1.5L89,28.33h-.78ZM95.38,45.53c3.26,0,5.05-2,5.05-7.26V26.35h1.85V38.68c0,6.75-3.21,9.43-8,9.43s-8-2.46-8-8.54V36.1c0-3.22,0-6.5-.09-9.75h4.34c-.1,3.18-.1,6.46-.1,9.75v2.5C90.43,43.79,92.23,45.53,95.38,45.53Zm5.42-17.29-3.47-.39v-1.5H105v1.5l-3.4.39Z"/><path class="cls-2" d="M106.63,27.85v-1.5h4.82v2H111Zm4.82,17.74v2h-4.82V46.07l4.4-.48Zm-2.08-9.32c0-3.3,0-6.63-.09-9.92h4.34c-.1,3.23-.1,6.56-.1,9.92V37.4c0,3.55,0,6.88.1,10.18h-4.34c.09-3.24.09-6.56.09-9.92Zm10.4-9.92,1.89,1.7H111.45v-1.7h11.3L123,32h-2.24Zm-1.18,11.17h-7.14V35.84h7.14Zm5,4.45-.23,5.61H111.45v-1.7H122.3l-1.89,1.7,1-5.61Zm-6-5.69.48-3.23h1.65v7.23h-1.65l-.48-3.39Z"/></g></g></svg>